<svg width="17" height="17" viewBox="0 0 17 17" fill="none" xmlns="http://www.w3.org/2000/svg">
<path d="M5.24966 13.4985C5.93823 13.4985 6.49541 14.058 6.49541 14.7494C6.49541 15.4408 5.93823 16.0003 5.24966 16.0003C4.56108 16.0003 4.00391 15.4408 4.00391 14.7494C4.00391 14.058 4.56108 13.4985 5.24966 13.4985Z" stroke="#171616" stroke-miterlimit="133.33"/>
<path d="M12.7184 13.4985C13.407 13.4985 13.9642 14.058 13.9642 14.7494C13.9642 15.4408 13.407 16.0003 12.7184 16.0003C12.0298 16.0003 11.4727 15.4408 11.4727 14.7494C11.4727 14.058 12.0298 13.4985 12.7184 13.4985Z" stroke="#171616" stroke-miterlimit="133.33"/>
<path d="M0.6875 1L0.903009 1.07917C1.98581 1.45919 2.52196 1.64919 2.83208 2.1031C3.1422 2.55701 3.1422 3.1587 3.1422 4.36737V6.63691C3.1422 9.0859 3.19477 9.89872 3.91488 10.6587C4.635 11.4188 5.79139 11.4188 8.10418 11.4188H8.98724M12.5037 11.4188C13.7968 11.4188 14.4486 11.4188 14.9059 11.044C15.3632 10.6693 15.4946 10.0307 15.7574 8.75867L16.1726 6.73719C16.4617 5.28574 16.6037 4.56265 16.2357 4.08236C15.8678 3.60206 14.6063 3.60206 13.2081 3.60206H8.17251M3.1422 3.60206H4.83474" stroke="#171616" stroke-miterlimit="133.33" stroke-linecap="round"/>
</svg>
