<svg width="200" height="90" viewBox="0 0 200 90" fill="none" xmlns="http://www.w3.org/2000/svg">
<g clip-path="url(#clip0_0_210)">
<path d="M16.7135 49.7614C16.3816 49.7614 16.0856 49.963 15.9733 50.2704L11.7413 61.5895C9.25009 68.1007 10.6182 71.2757 18.4134 71.7494V72.3844H0V71.7494C4.09924 71.2706 6.83547 68.8919 9.8882 61.1107L24.4168 22.255C24.4831 22.0786 24.4831 21.8821 24.4168 21.7006L22.9976 18.1023C22.8291 17.674 23.0793 17.2053 23.5285 17.0742C26.1014 16.3485 28.7968 14.9324 30.3129 13.0022H30.8745C31.5994 15.779 32.0027 16.9734 34.0089 22.129L49.0428 61.8969C52.1007 69.6781 53.3871 71.2656 58.6094 71.7393V72.3743H35.9334V71.7393C42.529 71.3412 42.7689 69.5975 41.3191 65.6262L35.6373 50.2603C35.525 49.9529 35.229 49.7463 34.8971 49.7463M33.6873 48.1739C34.2335 48.1739 34.6164 47.6347 34.4275 47.1257L26.474 25.7273C26.2188 25.047 25.2438 25.047 24.9936 25.7273L17.1116 47.1257C16.9228 47.6347 17.3056 48.1689 17.8519 48.1689" fill="#171616"/>
<path d="M61.5958 64.3664V39.269C61.5958 38.8406 61.2436 38.4878 60.8045 38.4878H58.0428C57.6089 38.4878 57.2515 38.1401 57.2515 37.7067C57.2515 37.4043 57.4302 37.1372 57.7059 37.0062C62.5045 34.7333 65.353 30.8024 67.7268 26.1356C67.8595 25.8736 68.1301 25.7073 68.4313 25.7073H68.4415C68.8754 25.7073 69.2327 26.055 69.2327 26.4884V33.5036C69.2327 33.932 69.585 34.2848 70.024 34.2848H81.2446C81.7346 34.2848 82.1022 34.7182 82.0205 35.1919L81.5662 37.8428C81.4998 38.2157 81.1731 38.4929 80.7902 38.4929H70.024C69.5901 38.4929 69.2327 38.8406 69.2327 39.274V62.9453C69.2327 67.4709 71.8873 68.9777 75.5067 68.9777C78.0795 68.9777 80.4125 68.1865 82.6637 67.0727L82.9854 67.4709C79.366 71.1246 74.7052 73.1858 70.4426 73.1858C65.4602 73.1858 61.5958 70.6458 61.5958 64.3765V64.3664Z" fill="#171616"/>
<path d="M89.5758 67.6975V25.3897C89.5758 18.0066 88.6109 15.9454 84.6699 15.0685V14.5897C89.1725 13.8741 93.4351 12.4478 97.131 10.3816H97.616C97.131 13.5566 97.131 19.0347 97.131 25.3846V67.6925C97.131 70.9481 98.2541 71.4218 102.598 71.7393V72.3743H84.0267V71.7393C88.4476 71.4218 89.5758 70.9431 89.5758 67.6925V67.6975Z" fill="#171616"/>
<path d="M125.198 67.9699C125.106 67.3248 124.32 67.0627 123.855 67.5264C120.159 71.2053 116.785 73.0196 113.084 73.0196C108.26 73.0196 104.804 69.8446 104.804 65.2384C104.804 61.5846 106.897 58.969 115.58 56.4291L124.504 53.8135C124.84 53.7177 125.07 53.4103 125.07 53.0676V46.0272C125.07 41.9804 123.38 38.246 118.72 38.246C115.907 38.246 110.761 40.2316 110.761 41.8997C110.761 42.8522 112.129 44.7572 112.129 46.5816C112.129 48.4059 110.679 49.4391 108.995 49.4391C107.31 49.4391 105.937 48.6428 105.937 46.8184C105.937 44.6766 107.867 42.056 110.679 39.516C114.779 35.8622 119.041 33.801 123.064 33.801C128.69 33.801 132.712 37.2935 132.712 44.1222V65.6315C132.712 67.7733 133.595 69.2046 135.367 69.2046C137.138 69.2046 138.501 67.9346 139.548 66.4277L140.109 66.8259C138.583 69.5221 135.765 73.0196 130.864 73.0196C126.893 73.0196 125.591 70.6006 125.208 67.9699H125.198ZM117.903 68.6552C120.226 68.6552 122.477 67.3298 124.8 65.2434C124.963 65.0973 125.06 64.8806 125.06 64.6588V55.8445C125.06 55.3153 124.534 54.9373 124.024 55.1036L118.225 56.9885C114.365 58.2585 112.354 59.9266 112.354 63.0209C112.354 66.594 114.687 68.6552 117.903 68.6552Z" fill="#171616"/>
<path d="M144.448 71.4472C144.178 71.3414 143.994 71.0944 143.963 70.8122L142.891 61.5896H143.535C146.271 68.0202 150.207 71.9864 154.954 71.9864C160.263 71.9864 163.556 69.2096 163.556 65.1577C163.556 62.0634 161.463 59.4427 155.919 57.1396L153.106 55.9503C146.353 53.0928 144.183 49.3634 144.183 44.9185C144.183 38.3316 149.17 33.4885 156.567 33.4885C160.207 33.4885 162.984 34.053 165.715 34.9147C166.017 35.0105 166.231 35.2776 166.262 35.5901L167.017 43.8047H166.374C163.883 38.246 160.263 34.6779 156.404 34.6779C152.866 34.6779 149.487 36.8197 149.487 40.791C149.487 43.8853 150.855 46.1884 157.047 48.8091L159.86 49.9984C166.772 52.9365 168.865 56.7465 168.865 61.1109C168.865 68.1765 162.918 73.1758 154.796 73.1758C150.549 73.1758 146.945 72.3997 144.454 71.4421L144.448 71.4472Z" fill="#171616"/>
<path d="M1.56211 89.8167V83.2097H6.48835V84.2277H2.75666V85.8404H5.90639V86.8483H2.75666V89.8167H1.55701H1.56211Z" fill="#171616"/>
<path d="M14.4826 83.2097H15.6823V89.8167H14.4826V83.2097Z" fill="#171616"/>
<path d="M25.4633 83.2097L27.8626 86.4553C28.3374 87.1003 28.8836 88.0175 28.8836 88.0175V83.2148H30.0832V89.8217H28.8427L26.5609 86.7425C25.984 85.9563 25.4429 85.0593 25.4429 85.0593V89.8217H24.2432V83.2148H25.4633V83.2097Z" fill="#171616"/>
<path d="M38.6442 89.8167V83.2097H43.841V84.2277H39.8438V85.8404H43.6163V86.8483H39.8438V88.7987H43.989V89.8167H38.6493H38.6442Z" fill="#171616"/>
<path d="M109.47 83.2097H110.669L111.94 87.1961C112.104 87.7152 112.252 88.2998 112.252 88.2998C112.252 88.2998 112.395 87.7303 112.533 87.1961L113.584 83.2097H114.865L115.917 87.1961C116.06 87.7253 116.188 88.2998 116.188 88.2998C116.188 88.2998 116.341 87.7303 116.509 87.1961L117.78 83.2097H118.98L116.841 89.8369H115.57L114.498 86.0017C114.345 85.4322 114.227 84.6964 114.227 84.6964C114.227 84.6964 114.115 85.4322 113.957 86.0017L112.885 89.8369H111.603L109.475 83.2097H109.47Z" fill="#171616"/>
<path d="M126.939 83.2097H128.138V89.8167H126.939V83.2097Z" fill="#171616"/>
<path d="M137.914 83.2097L140.313 86.4553C140.788 87.1003 141.334 88.0175 141.334 88.0175V83.2148H142.534V89.8217H141.294L139.012 86.7425C138.435 85.9563 137.894 85.0593 137.894 85.0593V89.8217H136.694V83.2148H137.914V83.2097Z" fill="#171616"/>
<path d="M151.095 89.8167V83.2097H156.292V84.2277H152.295V85.8404H156.067V86.8483H152.295V88.7987H156.44V89.8167H151.1H151.095Z" fill="#171616"/>
<path d="M164.266 88.97L164.73 88.0729C165.276 88.5114 165.95 88.8491 166.951 88.8491C167.676 88.8491 168.396 88.5114 168.396 87.9117C168.396 87.312 167.701 87.1255 167.022 86.9642C165.792 86.677 164.521 86.2889 164.521 84.9736C164.521 83.7388 165.71 83.1089 166.951 83.1089C167.911 83.1089 168.656 83.376 169.33 83.8245L168.865 84.7317C168.268 84.3537 167.645 84.1823 166.956 84.1823C166.512 84.1823 165.746 84.3638 165.746 84.9685C165.746 85.4977 166.343 85.6741 167.15 85.8656C168.421 86.1629 169.651 86.6316 169.651 87.9167C169.651 89.3026 168.268 89.9275 166.946 89.9275C165.491 89.9275 164.715 89.3883 164.271 88.9801L164.266 88.97Z" fill="#171616"/>
<path d="M98.4328 86.0874H55.0258V86.9391H98.4328V86.0874Z" fill="#171616"/>
<path d="M198.617 3.28079C198.32 2.21239 198.019 1.32541 197.682 0.534182V0.519063C197.641 0.428349 197.56 0.367873 197.463 0.347715L195.676 -2.14101e-05C195.569 -0.02018 195.482 0.080613 195.523 0.181406L195.661 0.529142L195.763 0.781125C195.952 1.24981 196.13 1.6933 196.284 2.13679C197.126 4.5911 197.682 7.17644 197.994 10.044C198.208 12.0649 198.147 13.8489 197.795 15.4969C196.58 21.1917 192.404 25.556 187.197 27.3552C187.059 27.4056 186.967 27.2091 187.1 27.1385C189.402 25.8987 190.857 24.2205 191.526 23.3134C191.817 22.8951 192.087 22.4667 192.348 22.0485C192.44 21.9124 192.531 21.7209 192.618 21.5394C192.618 21.5394 192.889 20.9649 192.991 20.7482C193.348 19.9671 193.649 18.9642 193.843 17.921C194.017 16.9282 194.068 15.9102 193.986 14.8871C193.905 13.8691 193.7 12.8511 193.374 11.8684L193.307 11.6718C193.246 11.5005 193.19 11.3291 193.119 11.1527C193.006 10.8957 192.894 10.6488 192.777 10.4018C192.623 10.044 192.348 9.60051 192.108 9.21246L192.001 9.04111C191.766 8.67826 191.439 8.27005 191.148 7.90719L191.041 7.77112C190.847 7.55946 190.643 7.35283 190.438 7.15628L190.311 7.03029C190.163 6.88414 190.025 6.74807 189.821 6.5868C188.948 5.85101 187.912 5.22106 186.834 4.76749C185.722 4.30384 184.558 4.01154 183.373 3.90571L183.276 3.89563C183.169 3.88555 183.062 3.87547 182.955 3.86539C182.791 3.86539 182.628 3.86035 182.47 3.85531H182.184C181.975 3.85531 181.77 3.85531 181.535 3.88555C181.219 3.91579 180.913 3.95107 180.637 3.98634C180.617 3.98634 180.596 3.99138 180.576 3.99642C180.259 4.0569 179.953 4.12241 179.662 4.18793C179.386 4.25848 179.106 4.33912 178.825 4.43487C178.646 4.49535 178.437 4.43487 178.335 4.27864C178.197 4.06194 178.294 3.7898 178.519 3.69404C179.182 3.41686 179.856 3.20016 180.53 3.05401C181.627 2.81714 182.699 2.78691 183.603 2.78691C187.273 2.78691 189.943 3.98634 191.934 5.62423C191.985 5.66959 192.067 5.65951 192.103 5.59903C192.133 5.55367 192.128 5.48816 192.087 5.44784C191.602 5.00939 191.056 4.57598 190.438 4.16273C188.744 3.04897 186.993 2.34342 185.099 2.0108C184.323 1.87473 183.526 1.80921 182.735 1.80921C181.576 1.80921 180.433 1.95536 179.325 2.23758C177.426 2.73147 175.721 3.60333 174.266 4.82796C172.775 6.08284 171.612 7.67033 170.907 9.41909C170.728 9.89281 170.58 10.3766 170.443 10.8453C170.391 11.0066 170.351 11.2283 170.315 11.4299L170.294 11.5357C170.249 11.7827 170.213 12.0246 170.177 12.2615C170.055 13.1081 170.055 14.1261 170.182 15.129C170.432 17.0138 171.239 18.8785 172.454 20.3803C173.745 21.9628 175.323 23.0513 177.145 23.6158C178.034 23.898 179.003 24.0442 179.958 24.0442C186.319 24.0442 188.759 19.196 188.902 16.2327C189.055 13.0174 186.824 10.9713 184.374 10.1045C181.454 9.07135 178.6 10.9159 178.217 13.4558C178.12 14.116 178.325 14.741 178.758 15.2651C179.412 16.0664 180.668 16.1017 181.469 15.3608C182.225 14.6603 182.214 13.5415 181.454 12.841C181.311 12.71 181.285 12.6797 181.148 12.5437C180.749 12.1506 180.902 11.6164 180.994 11.4299C181.275 10.8453 182.02 10.6588 182.873 10.7445C185.359 11.0015 186.14 13.3803 185.727 15.1139C185.558 15.8295 184.675 19.3926 179.912 19.3926C179.754 19.3926 179.601 19.3774 179.448 19.3623L179.279 19.3422L179.146 19.317C178.978 19.2867 178.804 19.2514 178.651 19.2061C178.442 19.1456 178.228 19.0751 178.064 18.9944C177.86 18.9138 177.671 18.8029 177.492 18.692C177.074 18.4602 176.752 18.1679 176.415 17.8605C176.145 17.5632 175.838 17.2154 175.629 16.8475C175.175 16.0916 174.889 15.2449 174.807 14.4083C174.72 13.5516 174.807 12.6797 175.052 11.818C175.563 10.1398 176.757 8.59258 178.233 7.68545C179.907 6.63216 181.597 6.41545 182.72 6.41545C182.944 6.41545 183.164 6.42553 183.378 6.44065C185.114 6.56664 186.758 7.21172 188.259 8.3658C189.678 9.46444 190.811 10.9763 191.444 12.6243C191.781 13.5163 191.995 14.4083 192.072 15.2046C192.092 15.4213 192.108 15.638 192.123 15.8648V15.9706C192.144 16.1823 192.154 16.404 192.138 16.5603C192.118 16.9886 192.087 17.4321 192.036 17.9059C191.781 19.6395 191.087 21.3227 190.025 22.7691C188.984 24.1953 187.641 25.3545 186.028 26.2213C184.2 27.204 182.383 27.7231 180.78 27.7231C173.24 27.7231 168.86 22.4819 166.818 17.9663C166.507 17.1751 166.257 16.3436 166.073 15.4868C165.981 15.0484 165.909 14.6049 165.853 14.1463C165.705 12.8763 165.71 11.5206 165.869 10.0339C166.175 7.16636 166.736 4.58102 167.579 2.12671C167.732 1.67818 167.911 1.23469 168.099 0.771045L168.201 0.519063L168.339 0.171327C168.38 0.0705337 168.293 -0.0302593 168.186 -0.0101007L168.099 0.00501824L166.399 0.332596C166.302 0.352754 166.226 0.41323 166.185 0.503944V0.519063C165.843 1.31533 165.537 2.20231 165.246 3.26567C164.388 6.36506 163.944 8.99576 163.878 11.4501C163.878 11.4601 163.878 11.4702 163.878 11.4853C163.878 11.6063 163.867 11.7222 163.873 11.8432C163.873 11.9036 163.873 11.9641 163.873 12.0246C163.873 12.1657 163.873 12.3018 163.873 12.4429C163.873 12.5437 163.873 12.6394 163.878 12.7402C163.878 12.7856 163.878 12.8309 163.878 12.8763C163.878 12.9065 163.878 12.9418 163.878 12.972C164.118 18.6668 167.063 23.7468 171.55 26.8613C173.761 28.3883 176.318 29.4265 179.044 29.8599C180.014 30.0111 180.979 30.0867 181.934 30.0867C182.965 30.0867 184.011 30.001 185.063 29.8196C193.583 28.3732 199.867 21.0909 200.005 12.5034C200.046 9.74666 199.612 6.81359 198.627 3.26567L198.617 3.28079Z" fill="#171616"/>
</g>
<defs>
<clipPath id="clip0_0_210">
<rect width="200" height="89.9225" fill="white"/>
</clipPath>
</defs>
</svg>
