<svg width="13" height="17" viewBox="0 0 13 17" fill="none" xmlns="http://www.w3.org/2000/svg">
<path d="M6.5013 7.08317C8.06611 7.08317 9.33464 5.81464 9.33464 4.24984C9.33464 2.68503 8.06611 1.4165 6.5013 1.4165C4.9365 1.4165 3.66797 2.68503 3.66797 4.24984C3.66797 5.81464 4.9365 7.08317 6.5013 7.08317Z" stroke="white"/>
<path d="M12.1659 12.7499C12.1673 12.6338 12.1673 12.5155 12.1673 12.3958C12.1673 10.6355 9.63007 9.20825 6.50065 9.20825C3.37123 9.20825 0.833984 10.6355 0.833984 12.3958C0.833984 14.156 0.833984 15.5833 6.50065 15.5833C8.08094 15.5833 9.22065 15.472 10.0423 15.2737" stroke="white" stroke-linecap="round"/>
</svg>
